# xmcd CD database file
#
# Track frame offsets:
#	150
#	25787
#	48719
#	102803
#	144103
#	193922
#	212213
#
# Disc length: 3640 seconds
#
# Revision: 0
# Processed by: cddbd v1.5.2PL0 Copyright (c) Steve Scherf et al.
# Submitted via: CDex 1.70beta2
#
DISCID=600e3607
DTITLE=Rain Sultanov  - Tale Of My Land
DYEAR=2008
DGENRE=Jazz
TTITLE0=Children
TTITLE1=Lost Land
TTITLE2=Father's Tale
TTITLE3=Mother
TTITLE4=Ache In My Soul
TTITLE5=My Angel
TTITLE6=Tale Of My Land
EXTD=YEAR: 2008
EXTT0=
EXTT1=
EXTT2=
EXTT3=
EXTT4=
EXTT5=
EXTT6=
PLAYORDER=
